<mxfile host="app.diagrams.net" modified="2023-08-29T17:46:53.641Z" agent="Mozilla/5.0 (Windows NT 10.0; Win64; x64) AppleWebKit/537.36 (KHTML, like Gecko) Chrome/116.0.0.0 Safari/537.36" etag="LdYkWsycvP57OQTkedvp" version="21.6.9" type="device">
  <diagram name="PÃ¡gina-1" id="GegUNrcwndyPD_5c_5h0">
    <mxGraphModel dx="2261" dy="758" grid="1" gridSize="10" guides="1" tooltips="1" connect="1" arrows="1" fold="1" page="1" pageScale="1" pageWidth="827" pageHeight="1169" math="0" shadow="0">
      <root>
        <mxCell id="0" />
        <mxCell id="1" parent="0" />
        <mxCell id="m9kHLvF1jsU4LfYlf7mb-1" value="Polymorphic associations of classes and grades" style="text;strokeColor=none;fillColor=none;html=1;fontSize=24;fontStyle=1;verticalAlign=middle;align=center;" vertex="1" parent="1">
          <mxGeometry y="40" width="100" height="40" as="geometry" />
        </mxCell>
        <mxCell id="m9kHLvF1jsU4LfYlf7mb-2" value="Project: Educational assessment engine" style="text;align=center;fontStyle=1;verticalAlign=middle;spacingLeft=3;spacingRight=3;strokeColor=none;rotatable=0;points=[[0,0.5],[1,0.5]];portConstraint=eastwest;html=1;" vertex="1" parent="1">
          <mxGeometry x="-153" y="70" width="80" height="26" as="geometry" />
        </mxCell>
        <mxCell id="m9kHLvF1jsU4LfYlf7mb-3" value="Result" style="swimlane;fontStyle=1;align=center;verticalAlign=top;childLayout=stackLayout;horizontal=1;startSize=26;horizontalStack=0;resizeParent=1;resizeParentMax=0;resizeLast=0;collapsible=1;marginBottom=0;whiteSpace=wrap;html=1;" vertex="1" parent="1">
          <mxGeometry x="-10" y="140" width="160" height="148" as="geometry" />
        </mxCell>
        <mxCell id="m9kHLvF1jsU4LfYlf7mb-4" value="+ id&lt;br&gt;+ user:Student&lt;br&gt;+ score&lt;br&gt;+ date" style="text;strokeColor=none;fillColor=none;align=left;verticalAlign=top;spacingLeft=4;spacingRight=4;overflow=hidden;rotatable=0;points=[[0,0.5],[1,0.5]];portConstraint=eastwest;whiteSpace=wrap;html=1;" vertex="1" parent="m9kHLvF1jsU4LfYlf7mb-3">
          <mxGeometry y="26" width="160" height="64" as="geometry" />
        </mxCell>
        <mxCell id="m9kHLvF1jsU4LfYlf7mb-5" value="" style="line;strokeWidth=1;fillColor=none;align=left;verticalAlign=middle;spacingTop=-1;spacingLeft=3;spacingRight=3;rotatable=0;labelPosition=right;points=[];portConstraint=eastwest;strokeColor=inherit;" vertex="1" parent="m9kHLvF1jsU4LfYlf7mb-3">
          <mxGeometry y="90" width="160" height="58" as="geometry" />
        </mxCell>
        <mxCell id="m9kHLvF1jsU4LfYlf7mb-7" value="Grade" style="swimlane;fontStyle=1;align=center;verticalAlign=top;childLayout=stackLayout;horizontal=1;startSize=26;horizontalStack=0;resizeParent=1;resizeParentMax=0;resizeLast=0;collapsible=1;marginBottom=0;whiteSpace=wrap;html=1;" vertex="1" parent="1">
          <mxGeometry x="-10" y="350" width="160" height="128" as="geometry" />
        </mxCell>
        <mxCell id="m9kHLvF1jsU4LfYlf7mb-8" value="+ id&lt;br&gt;+ number" style="text;strokeColor=none;fillColor=none;align=left;verticalAlign=top;spacingLeft=4;spacingRight=4;overflow=hidden;rotatable=0;points=[[0,0.5],[1,0.5]];portConstraint=eastwest;whiteSpace=wrap;html=1;" vertex="1" parent="m9kHLvF1jsU4LfYlf7mb-7">
          <mxGeometry y="26" width="160" height="44" as="geometry" />
        </mxCell>
        <mxCell id="m9kHLvF1jsU4LfYlf7mb-9" value="" style="line;strokeWidth=1;fillColor=none;align=left;verticalAlign=middle;spacingTop=-1;spacingLeft=3;spacingRight=3;rotatable=0;labelPosition=right;points=[];portConstraint=eastwest;strokeColor=inherit;" vertex="1" parent="m9kHLvF1jsU4LfYlf7mb-7">
          <mxGeometry y="70" width="160" height="58" as="geometry" />
        </mxCell>
        <mxCell id="m9kHLvF1jsU4LfYlf7mb-13" value="Klass" style="swimlane;fontStyle=1;align=center;verticalAlign=top;childLayout=stackLayout;horizontal=1;startSize=26;horizontalStack=0;resizeParent=1;resizeParentMax=0;resizeLast=0;collapsible=1;marginBottom=0;whiteSpace=wrap;html=1;" vertex="1" parent="1">
          <mxGeometry x="-10" y="550" width="160" height="168" as="geometry" />
        </mxCell>
        <mxCell id="m9kHLvF1jsU4LfYlf7mb-14" value="+ id&lt;br&gt;+ name&lt;br&gt;+ hours&lt;br&gt;+ teachers:Teacher&lt;br&gt;+ projects[*]:Project" style="text;strokeColor=none;fillColor=none;align=left;verticalAlign=top;spacingLeft=4;spacingRight=4;overflow=hidden;rotatable=0;points=[[0,0.5],[1,0.5]];portConstraint=eastwest;whiteSpace=wrap;html=1;" vertex="1" parent="m9kHLvF1jsU4LfYlf7mb-13">
          <mxGeometry y="26" width="160" height="84" as="geometry" />
        </mxCell>
        <mxCell id="m9kHLvF1jsU4LfYlf7mb-15" value="" style="line;strokeWidth=1;fillColor=none;align=left;verticalAlign=middle;spacingTop=-1;spacingLeft=3;spacingRight=3;rotatable=0;labelPosition=right;points=[];portConstraint=eastwest;strokeColor=inherit;" vertex="1" parent="m9kHLvF1jsU4LfYlf7mb-13">
          <mxGeometry y="110" width="160" height="58" as="geometry" />
        </mxCell>
        <mxCell id="m9kHLvF1jsU4LfYlf7mb-16" value="Quiz" style="swimlane;fontStyle=1;align=center;verticalAlign=top;childLayout=stackLayout;horizontal=1;startSize=26;horizontalStack=0;resizeParent=1;resizeParentMax=0;resizeLast=0;collapsible=1;marginBottom=0;whiteSpace=wrap;html=1;" vertex="1" parent="1">
          <mxGeometry x="280" y="320" width="160" height="138" as="geometry" />
        </mxCell>
        <mxCell id="m9kHLvF1jsU4LfYlf7mb-17" value="+ id&lt;br&gt;+ name&lt;br&gt;+ questions[*]:Question" style="text;strokeColor=none;fillColor=none;align=left;verticalAlign=top;spacingLeft=4;spacingRight=4;overflow=hidden;rotatable=0;points=[[0,0.5],[1,0.5]];portConstraint=eastwest;whiteSpace=wrap;html=1;" vertex="1" parent="m9kHLvF1jsU4LfYlf7mb-16">
          <mxGeometry y="26" width="160" height="54" as="geometry" />
        </mxCell>
        <mxCell id="m9kHLvF1jsU4LfYlf7mb-18" value="" style="line;strokeWidth=1;fillColor=none;align=left;verticalAlign=middle;spacingTop=-1;spacingLeft=3;spacingRight=3;rotatable=0;labelPosition=right;points=[];portConstraint=eastwest;strokeColor=inherit;" vertex="1" parent="m9kHLvF1jsU4LfYlf7mb-16">
          <mxGeometry y="80" width="160" height="58" as="geometry" />
        </mxCell>
        <mxCell id="m9kHLvF1jsU4LfYlf7mb-19" value="Question" style="swimlane;fontStyle=1;align=center;verticalAlign=top;childLayout=stackLayout;horizontal=1;startSize=26;horizontalStack=0;resizeParent=1;resizeParentMax=0;resizeLast=0;collapsible=1;marginBottom=0;whiteSpace=wrap;html=1;" vertex="1" parent="1">
          <mxGeometry x="520" y="320" width="160" height="140" as="geometry" />
        </mxCell>
        <mxCell id="m9kHLvF1jsU4LfYlf7mb-20" value="+ id&lt;br&gt;+ description&lt;br&gt;+ rightAnswer:Answer" style="text;strokeColor=none;fillColor=none;align=left;verticalAlign=top;spacingLeft=4;spacingRight=4;overflow=hidden;rotatable=0;points=[[0,0.5],[1,0.5]];portConstraint=eastwest;whiteSpace=wrap;html=1;" vertex="1" parent="m9kHLvF1jsU4LfYlf7mb-19">
          <mxGeometry y="26" width="160" height="54" as="geometry" />
        </mxCell>
        <mxCell id="m9kHLvF1jsU4LfYlf7mb-21" value="" style="line;strokeWidth=1;fillColor=none;align=left;verticalAlign=middle;spacingTop=-1;spacingLeft=3;spacingRight=3;rotatable=0;labelPosition=right;points=[];portConstraint=eastwest;strokeColor=inherit;" vertex="1" parent="m9kHLvF1jsU4LfYlf7mb-19">
          <mxGeometry y="80" width="160" height="30" as="geometry" />
        </mxCell>
        <mxCell id="m9kHLvF1jsU4LfYlf7mb-23" value="&amp;nbsp;+ ask()" style="text;html=1;align=left;verticalAlign=middle;resizable=0;points=[];autosize=1;strokeColor=none;fillColor=none;" vertex="1" parent="m9kHLvF1jsU4LfYlf7mb-19">
          <mxGeometry y="110" width="160" height="30" as="geometry" />
        </mxCell>
        <mxCell id="m9kHLvF1jsU4LfYlf7mb-24" value="MultipleChoice" style="swimlane;fontStyle=1;align=center;verticalAlign=top;childLayout=stackLayout;horizontal=1;startSize=26;horizontalStack=0;resizeParent=1;resizeParentMax=0;resizeLast=0;collapsible=1;marginBottom=0;whiteSpace=wrap;html=1;" vertex="1" parent="1">
          <mxGeometry x="760" y="120" width="160" height="140" as="geometry" />
        </mxCell>
        <mxCell id="m9kHLvF1jsU4LfYlf7mb-25" value="+ id&lt;br&gt;+ description&lt;br&gt;+ rightAnswer:Answer" style="text;strokeColor=none;fillColor=none;align=left;verticalAlign=top;spacingLeft=4;spacingRight=4;overflow=hidden;rotatable=0;points=[[0,0.5],[1,0.5]];portConstraint=eastwest;whiteSpace=wrap;html=1;" vertex="1" parent="m9kHLvF1jsU4LfYlf7mb-24">
          <mxGeometry y="26" width="160" height="54" as="geometry" />
        </mxCell>
        <mxCell id="m9kHLvF1jsU4LfYlf7mb-26" value="" style="line;strokeWidth=1;fillColor=none;align=left;verticalAlign=middle;spacingTop=-1;spacingLeft=3;spacingRight=3;rotatable=0;labelPosition=right;points=[];portConstraint=eastwest;strokeColor=inherit;" vertex="1" parent="m9kHLvF1jsU4LfYlf7mb-24">
          <mxGeometry y="80" width="160" height="30" as="geometry" />
        </mxCell>
        <mxCell id="m9kHLvF1jsU4LfYlf7mb-27" value="&amp;nbsp;+ ask()" style="text;html=1;align=left;verticalAlign=middle;resizable=0;points=[];autosize=1;strokeColor=none;fillColor=none;" vertex="1" parent="m9kHLvF1jsU4LfYlf7mb-24">
          <mxGeometry y="110" width="160" height="30" as="geometry" />
        </mxCell>
        <mxCell id="m9kHLvF1jsU4LfYlf7mb-28" value="Essay" style="swimlane;fontStyle=1;align=center;verticalAlign=top;childLayout=stackLayout;horizontal=1;startSize=26;horizontalStack=0;resizeParent=1;resizeParentMax=0;resizeLast=0;collapsible=1;marginBottom=0;whiteSpace=wrap;html=1;" vertex="1" parent="1">
          <mxGeometry x="760" y="478" width="160" height="140" as="geometry" />
        </mxCell>
        <mxCell id="m9kHLvF1jsU4LfYlf7mb-29" value="+ id&lt;br&gt;+ description&lt;br&gt;+ rightAnswer:Answer" style="text;strokeColor=none;fillColor=none;align=left;verticalAlign=top;spacingLeft=4;spacingRight=4;overflow=hidden;rotatable=0;points=[[0,0.5],[1,0.5]];portConstraint=eastwest;whiteSpace=wrap;html=1;" vertex="1" parent="m9kHLvF1jsU4LfYlf7mb-28">
          <mxGeometry y="26" width="160" height="54" as="geometry" />
        </mxCell>
        <mxCell id="m9kHLvF1jsU4LfYlf7mb-30" value="" style="line;strokeWidth=1;fillColor=none;align=left;verticalAlign=middle;spacingTop=-1;spacingLeft=3;spacingRight=3;rotatable=0;labelPosition=right;points=[];portConstraint=eastwest;strokeColor=inherit;" vertex="1" parent="m9kHLvF1jsU4LfYlf7mb-28">
          <mxGeometry y="80" width="160" height="30" as="geometry" />
        </mxCell>
        <mxCell id="m9kHLvF1jsU4LfYlf7mb-31" value="&amp;nbsp;+ ask()" style="text;html=1;align=left;verticalAlign=middle;resizable=0;points=[];autosize=1;strokeColor=none;fillColor=none;" vertex="1" parent="m9kHLvF1jsU4LfYlf7mb-28">
          <mxGeometry y="110" width="160" height="30" as="geometry" />
        </mxCell>
        <mxCell id="m9kHLvF1jsU4LfYlf7mb-32" value="Answer" style="swimlane;fontStyle=1;align=center;verticalAlign=top;childLayout=stackLayout;horizontal=1;startSize=26;horizontalStack=0;resizeParent=1;resizeParentMax=0;resizeLast=0;collapsible=1;marginBottom=0;whiteSpace=wrap;html=1;" vertex="1" parent="1">
          <mxGeometry x="1081" y="270" width="129" height="120" as="geometry" />
        </mxCell>
        <mxCell id="m9kHLvF1jsU4LfYlf7mb-33" value="+ id&lt;br&gt;+ text" style="text;strokeColor=none;fillColor=none;align=left;verticalAlign=top;spacingLeft=4;spacingRight=4;overflow=hidden;rotatable=0;points=[[0,0.5],[1,0.5]];portConstraint=eastwest;whiteSpace=wrap;html=1;" vertex="1" parent="m9kHLvF1jsU4LfYlf7mb-32">
          <mxGeometry y="26" width="129" height="44" as="geometry" />
        </mxCell>
        <mxCell id="m9kHLvF1jsU4LfYlf7mb-34" value="" style="line;strokeWidth=1;fillColor=none;align=left;verticalAlign=middle;spacingTop=-1;spacingLeft=3;spacingRight=3;rotatable=0;labelPosition=right;points=[];portConstraint=eastwest;strokeColor=inherit;" vertex="1" parent="m9kHLvF1jsU4LfYlf7mb-32">
          <mxGeometry y="70" width="129" height="50" as="geometry" />
        </mxCell>
        <mxCell id="m9kHLvF1jsU4LfYlf7mb-36" value="Project" style="swimlane;fontStyle=1;align=center;verticalAlign=top;childLayout=stackLayout;horizontal=1;startSize=26;horizontalStack=0;resizeParent=1;resizeParentMax=0;resizeLast=0;collapsible=1;marginBottom=0;whiteSpace=wrap;html=1;" vertex="1" parent="1">
          <mxGeometry x="280" y="560" width="160" height="148" as="geometry" />
        </mxCell>
        <mxCell id="m9kHLvF1jsU4LfYlf7mb-37" value="+ id&lt;br&gt;+ name&lt;br&gt;+ terms&lt;br&gt;+ quizes[*]" style="text;strokeColor=none;fillColor=none;align=left;verticalAlign=top;spacingLeft=4;spacingRight=4;overflow=hidden;rotatable=0;points=[[0,0.5],[1,0.5]];portConstraint=eastwest;whiteSpace=wrap;html=1;" vertex="1" parent="m9kHLvF1jsU4LfYlf7mb-36">
          <mxGeometry y="26" width="160" height="64" as="geometry" />
        </mxCell>
        <mxCell id="m9kHLvF1jsU4LfYlf7mb-38" value="" style="line;strokeWidth=1;fillColor=none;align=left;verticalAlign=middle;spacingTop=-1;spacingLeft=3;spacingRight=3;rotatable=0;labelPosition=right;points=[];portConstraint=eastwest;strokeColor=inherit;" vertex="1" parent="m9kHLvF1jsU4LfYlf7mb-36">
          <mxGeometry y="90" width="160" height="58" as="geometry" />
        </mxCell>
        <mxCell id="m9kHLvF1jsU4LfYlf7mb-39" value="Student" style="swimlane;fontStyle=1;align=center;verticalAlign=top;childLayout=stackLayout;horizontal=1;startSize=26;horizontalStack=0;resizeParent=1;resizeParentMax=0;resizeLast=0;collapsible=1;marginBottom=0;whiteSpace=wrap;html=1;" vertex="1" parent="1">
          <mxGeometry x="-270" y="440" width="160" height="128" as="geometry" />
        </mxCell>
        <mxCell id="m9kHLvF1jsU4LfYlf7mb-40" value="+ grade&lt;br&gt;+ quizzes[*]:Result" style="text;strokeColor=none;fillColor=none;align=left;verticalAlign=top;spacingLeft=4;spacingRight=4;overflow=hidden;rotatable=0;points=[[0,0.5],[1,0.5]];portConstraint=eastwest;whiteSpace=wrap;html=1;" vertex="1" parent="m9kHLvF1jsU4LfYlf7mb-39">
          <mxGeometry y="26" width="160" height="44" as="geometry" />
        </mxCell>
        <mxCell id="m9kHLvF1jsU4LfYlf7mb-41" value="" style="line;strokeWidth=1;fillColor=none;align=left;verticalAlign=middle;spacingTop=-1;spacingLeft=3;spacingRight=3;rotatable=0;labelPosition=right;points=[];portConstraint=eastwest;strokeColor=inherit;" vertex="1" parent="m9kHLvF1jsU4LfYlf7mb-39">
          <mxGeometry y="70" width="160" height="58" as="geometry" />
        </mxCell>
        <mxCell id="m9kHLvF1jsU4LfYlf7mb-42" value="Teacher" style="swimlane;fontStyle=1;align=center;verticalAlign=top;childLayout=stackLayout;horizontal=1;startSize=26;horizontalStack=0;resizeParent=1;resizeParentMax=0;resizeLast=0;collapsible=1;marginBottom=0;whiteSpace=wrap;html=1;" vertex="1" parent="1">
          <mxGeometry x="-270" y="690" width="160" height="148" as="geometry" />
        </mxCell>
        <mxCell id="m9kHLvF1jsU4LfYlf7mb-43" value="+ degree&lt;br&gt;+ diploma&lt;br&gt;+ cathedra: Cathedra" style="text;strokeColor=none;fillColor=none;align=left;verticalAlign=top;spacingLeft=4;spacingRight=4;overflow=hidden;rotatable=0;points=[[0,0.5],[1,0.5]];portConstraint=eastwest;whiteSpace=wrap;html=1;" vertex="1" parent="m9kHLvF1jsU4LfYlf7mb-42">
          <mxGeometry y="26" width="160" height="64" as="geometry" />
        </mxCell>
        <mxCell id="m9kHLvF1jsU4LfYlf7mb-44" value="" style="line;strokeWidth=1;fillColor=none;align=left;verticalAlign=middle;spacingTop=-1;spacingLeft=3;spacingRight=3;rotatable=0;labelPosition=right;points=[];portConstraint=eastwest;strokeColor=inherit;" vertex="1" parent="m9kHLvF1jsU4LfYlf7mb-42">
          <mxGeometry y="90" width="160" height="58" as="geometry" />
        </mxCell>
        <mxCell id="m9kHLvF1jsU4LfYlf7mb-45" value="User" style="swimlane;fontStyle=1;align=center;verticalAlign=top;childLayout=stackLayout;horizontal=1;startSize=26;horizontalStack=0;resizeParent=1;resizeParentMax=0;resizeLast=0;collapsible=1;marginBottom=0;whiteSpace=wrap;html=1;" vertex="1" parent="1">
          <mxGeometry x="-520" y="478" width="160" height="210" as="geometry" />
        </mxCell>
        <mxCell id="m9kHLvF1jsU4LfYlf7mb-46" value="+ id&lt;br&gt;+ login&lt;br&gt;+ password&lt;br&gt;+ firstName&lt;br&gt;+ lastName" style="text;strokeColor=none;fillColor=none;align=left;verticalAlign=top;spacingLeft=4;spacingRight=4;overflow=hidden;rotatable=0;points=[[0,0.5],[1,0.5]];portConstraint=eastwest;whiteSpace=wrap;html=1;" vertex="1" parent="m9kHLvF1jsU4LfYlf7mb-45">
          <mxGeometry y="26" width="160" height="84" as="geometry" />
        </mxCell>
        <mxCell id="m9kHLvF1jsU4LfYlf7mb-47" value="" style="line;strokeWidth=1;fillColor=none;align=left;verticalAlign=middle;spacingTop=-1;spacingLeft=3;spacingRight=3;rotatable=0;labelPosition=right;points=[];portConstraint=eastwest;strokeColor=inherit;" vertex="1" parent="m9kHLvF1jsU4LfYlf7mb-45">
          <mxGeometry y="110" width="160" height="60" as="geometry" />
        </mxCell>
        <mxCell id="m9kHLvF1jsU4LfYlf7mb-48" value="&amp;nbsp; + login()&lt;br&gt;&amp;nbsp; + logout()" style="text;html=1;align=left;verticalAlign=middle;resizable=0;points=[];autosize=1;strokeColor=none;fillColor=none;" vertex="1" parent="m9kHLvF1jsU4LfYlf7mb-45">
          <mxGeometry y="170" width="160" height="40" as="geometry" />
        </mxCell>
        <mxCell id="m9kHLvF1jsU4LfYlf7mb-49" value="" style="endArrow=none;html=1;rounded=0;" edge="1" parent="1">
          <mxGeometry width="50" height="50" relative="1" as="geometry">
            <mxPoint x="-318" y="503.5" as="sourcePoint" />
            <mxPoint x="-270" y="503.5" as="targetPoint" />
          </mxGeometry>
        </mxCell>
        <mxCell id="m9kHLvF1jsU4LfYlf7mb-50" value="" style="endArrow=none;html=1;rounded=0;" edge="1" parent="1">
          <mxGeometry width="50" height="50" relative="1" as="geometry">
            <mxPoint x="-318" y="560" as="sourcePoint" />
            <mxPoint x="-318" y="503.5" as="targetPoint" />
          </mxGeometry>
        </mxCell>
        <mxCell id="m9kHLvF1jsU4LfYlf7mb-51" value="" style="endArrow=block;html=1;rounded=0;endFill=0;" edge="1" parent="1">
          <mxGeometry width="50" height="50" relative="1" as="geometry">
            <mxPoint x="-319" y="560" as="sourcePoint" />
            <mxPoint x="-359" y="560" as="targetPoint" />
          </mxGeometry>
        </mxCell>
        <mxCell id="m9kHLvF1jsU4LfYlf7mb-52" value="" style="endArrow=none;html=1;rounded=0;" edge="1" parent="1">
          <mxGeometry width="50" height="50" relative="1" as="geometry">
            <mxPoint x="-318" y="750" as="sourcePoint" />
            <mxPoint x="-270" y="750" as="targetPoint" />
          </mxGeometry>
        </mxCell>
        <mxCell id="m9kHLvF1jsU4LfYlf7mb-53" value="" style="endArrow=none;html=1;rounded=0;" edge="1" parent="1">
          <mxGeometry width="50" height="50" relative="1" as="geometry">
            <mxPoint x="-319" y="749.5" as="sourcePoint" />
            <mxPoint x="-319" y="600" as="targetPoint" />
          </mxGeometry>
        </mxCell>
        <mxCell id="m9kHLvF1jsU4LfYlf7mb-54" value="" style="endArrow=block;html=1;rounded=0;endFill=0;" edge="1" parent="1">
          <mxGeometry width="50" height="50" relative="1" as="geometry">
            <mxPoint x="-320" y="600" as="sourcePoint" />
            <mxPoint x="-360" y="600" as="targetPoint" />
          </mxGeometry>
        </mxCell>
        <mxCell id="m9kHLvF1jsU4LfYlf7mb-55" value="" style="endArrow=none;html=1;rounded=0;" edge="1" parent="1">
          <mxGeometry width="50" height="50" relative="1" as="geometry">
            <mxPoint x="-110" y="763.5" as="sourcePoint" />
            <mxPoint x="80" y="764" as="targetPoint" />
          </mxGeometry>
        </mxCell>
        <mxCell id="m9kHLvF1jsU4LfYlf7mb-56" value="" style="endArrow=none;html=1;rounded=0;" edge="1" parent="1">
          <mxGeometry width="50" height="50" relative="1" as="geometry">
            <mxPoint x="80" y="763" as="sourcePoint" />
            <mxPoint x="80" y="720" as="targetPoint" />
          </mxGeometry>
        </mxCell>
        <mxCell id="m9kHLvF1jsU4LfYlf7mb-57" value="" style="rhombus;whiteSpace=wrap;html=1;strokeColor=#000000;fillColor=#000000;" vertex="1" parent="1">
          <mxGeometry x="50" y="478" width="40" height="40" as="geometry" />
        </mxCell>
        <mxCell id="m9kHLvF1jsU4LfYlf7mb-58" value="" style="endArrow=none;html=1;rounded=0;exitX=0.5;exitY=0;exitDx=0;exitDy=0;" edge="1" parent="1" source="m9kHLvF1jsU4LfYlf7mb-13">
          <mxGeometry width="50" height="50" relative="1" as="geometry">
            <mxPoint x="69.5" y="538" as="sourcePoint" />
            <mxPoint x="69.5" y="518" as="targetPoint" />
          </mxGeometry>
        </mxCell>
        <mxCell id="m9kHLvF1jsU4LfYlf7mb-59" value="" style="rhombus;whiteSpace=wrap;html=1;strokeColor=#000000;fillColor=#000000;" vertex="1" parent="1">
          <mxGeometry x="150" y="618" width="40" height="40" as="geometry" />
        </mxCell>
        <mxCell id="m9kHLvF1jsU4LfYlf7mb-60" value="" style="endArrow=none;html=1;rounded=0;" edge="1" parent="1">
          <mxGeometry width="50" height="50" relative="1" as="geometry">
            <mxPoint x="280" y="638" as="sourcePoint" />
            <mxPoint x="190" y="637.5" as="targetPoint" />
          </mxGeometry>
        </mxCell>
        <mxCell id="m9kHLvF1jsU4LfYlf7mb-61" value="" style="endArrow=none;html=1;rounded=0;exitX=0.5;exitY=0;exitDx=0;exitDy=0;" edge="1" parent="1" source="m9kHLvF1jsU4LfYlf7mb-36">
          <mxGeometry width="50" height="50" relative="1" as="geometry">
            <mxPoint x="359.5" y="488" as="sourcePoint" />
            <mxPoint x="359.5" y="458" as="targetPoint" />
          </mxGeometry>
        </mxCell>
        <mxCell id="m9kHLvF1jsU4LfYlf7mb-62" value="" style="endArrow=none;html=1;rounded=0;entryX=-0.006;entryY=0.815;entryDx=0;entryDy=0;entryPerimeter=0;" edge="1" parent="1" target="m9kHLvF1jsU4LfYlf7mb-20">
          <mxGeometry width="50" height="50" relative="1" as="geometry">
            <mxPoint x="440" y="390" as="sourcePoint" />
            <mxPoint x="488" y="390" as="targetPoint" />
          </mxGeometry>
        </mxCell>
        <mxCell id="m9kHLvF1jsU4LfYlf7mb-63" value="" style="endArrow=none;html=1;rounded=0;" edge="1" parent="1">
          <mxGeometry width="50" height="50" relative="1" as="geometry">
            <mxPoint x="-170" y="400" as="sourcePoint" />
            <mxPoint x="-10" y="400.5" as="targetPoint" />
          </mxGeometry>
        </mxCell>
        <mxCell id="m9kHLvF1jsU4LfYlf7mb-64" value="" style="endArrow=none;html=1;rounded=0;" edge="1" parent="1">
          <mxGeometry width="50" height="50" relative="1" as="geometry">
            <mxPoint x="-170" y="441" as="sourcePoint" />
            <mxPoint x="-170" y="401" as="targetPoint" />
          </mxGeometry>
        </mxCell>
        <mxCell id="m9kHLvF1jsU4LfYlf7mb-65" value="" style="endArrow=none;html=1;rounded=0;" edge="1" parent="1">
          <mxGeometry width="50" height="50" relative="1" as="geometry">
            <mxPoint x="-200" y="440" as="sourcePoint" />
            <mxPoint x="-200" y="220" as="targetPoint" />
          </mxGeometry>
        </mxCell>
        <mxCell id="m9kHLvF1jsU4LfYlf7mb-66" value="" style="endArrow=none;html=1;rounded=0;entryX=-0.006;entryY=0.859;entryDx=0;entryDy=0;entryPerimeter=0;" edge="1" parent="1" target="m9kHLvF1jsU4LfYlf7mb-4">
          <mxGeometry width="50" height="50" relative="1" as="geometry">
            <mxPoint x="-200" y="220" as="sourcePoint" />
            <mxPoint x="-40" y="220.5" as="targetPoint" />
          </mxGeometry>
        </mxCell>
        <mxCell id="m9kHLvF1jsU4LfYlf7mb-67" value="" style="endArrow=none;html=1;rounded=0;" edge="1" parent="1">
          <mxGeometry width="50" height="50" relative="1" as="geometry">
            <mxPoint x="150" y="213.5" as="sourcePoint" />
            <mxPoint x="360" y="215" as="targetPoint" />
          </mxGeometry>
        </mxCell>
        <mxCell id="m9kHLvF1jsU4LfYlf7mb-68" value="" style="endArrow=none;html=1;rounded=0;exitX=0.5;exitY=0;exitDx=0;exitDy=0;" edge="1" parent="1">
          <mxGeometry width="50" height="50" relative="1" as="geometry">
            <mxPoint x="360" y="317" as="sourcePoint" />
            <mxPoint x="360" y="215" as="targetPoint" />
          </mxGeometry>
        </mxCell>
        <mxCell id="m9kHLvF1jsU4LfYlf7mb-69" value="" style="endArrow=none;html=1;rounded=0;dashed=1;dashPattern=8 8;" edge="1" parent="1">
          <mxGeometry width="50" height="50" relative="1" as="geometry">
            <mxPoint x="600" y="189.5" as="sourcePoint" />
            <mxPoint x="760" y="190" as="targetPoint" />
          </mxGeometry>
        </mxCell>
        <mxCell id="m9kHLvF1jsU4LfYlf7mb-70" value="" style="endArrow=block;html=1;rounded=0;dashed=1;dashPattern=8 8;endFill=0;" edge="1" parent="1">
          <mxGeometry width="50" height="50" relative="1" as="geometry">
            <mxPoint x="600" y="190" as="sourcePoint" />
            <mxPoint x="599.5" y="320" as="targetPoint" />
          </mxGeometry>
        </mxCell>
        <mxCell id="m9kHLvF1jsU4LfYlf7mb-71" value="" style="endArrow=none;html=1;rounded=0;dashed=1;dashPattern=8 8;" edge="1" parent="1">
          <mxGeometry width="50" height="50" relative="1" as="geometry">
            <mxPoint x="600" y="550" as="sourcePoint" />
            <mxPoint x="760" y="550.5" as="targetPoint" />
          </mxGeometry>
        </mxCell>
        <mxCell id="m9kHLvF1jsU4LfYlf7mb-72" value="" style="endArrow=block;html=1;rounded=0;entryX=0.5;entryY=1.167;entryDx=0;entryDy=0;entryPerimeter=0;dashed=1;dashPattern=8 8;endFill=0;" edge="1" parent="1" target="m9kHLvF1jsU4LfYlf7mb-23">
          <mxGeometry width="50" height="50" relative="1" as="geometry">
            <mxPoint x="599.5" y="550" as="sourcePoint" />
            <mxPoint x="599.5" y="470" as="targetPoint" />
            <Array as="points">
              <mxPoint x="600" y="520" />
            </Array>
          </mxGeometry>
        </mxCell>
        <mxCell id="m9kHLvF1jsU4LfYlf7mb-73" value="" style="endArrow=none;html=1;rounded=0;" edge="1" parent="1">
          <mxGeometry width="50" height="50" relative="1" as="geometry">
            <mxPoint x="920" y="189.25" as="sourcePoint" />
            <mxPoint x="1130" y="190.75" as="targetPoint" />
          </mxGeometry>
        </mxCell>
        <mxCell id="m9kHLvF1jsU4LfYlf7mb-74" value="" style="endArrow=block;html=1;rounded=0;entryX=0.364;entryY=0;entryDx=0;entryDy=0;entryPerimeter=0;endFill=1;" edge="1" parent="1" target="m9kHLvF1jsU4LfYlf7mb-32">
          <mxGeometry width="50" height="50" relative="1" as="geometry">
            <mxPoint x="1130" y="190" as="sourcePoint" />
            <mxPoint x="1130" y="260" as="targetPoint" />
          </mxGeometry>
        </mxCell>
        <mxCell id="m9kHLvF1jsU4LfYlf7mb-75" value="" style="endArrow=none;html=1;rounded=0;" edge="1" parent="1">
          <mxGeometry width="50" height="50" relative="1" as="geometry">
            <mxPoint x="920" y="550" as="sourcePoint" />
            <mxPoint x="1130" y="551.5" as="targetPoint" />
          </mxGeometry>
        </mxCell>
        <mxCell id="m9kHLvF1jsU4LfYlf7mb-76" value="" style="endArrow=classic;html=1;rounded=0;" edge="1" parent="1">
          <mxGeometry width="50" height="50" relative="1" as="geometry">
            <mxPoint x="1130" y="550" as="sourcePoint" />
            <mxPoint x="1130" y="390" as="targetPoint" />
          </mxGeometry>
        </mxCell>
      </root>
    </mxGraphModel>
  </diagram>
</mxfile>
